<svg width="119" height="28" viewBox="0 0 119 28" fill="none" xmlns="http://www.w3.org/2000/svg">
<mask id="mask0" mask-type="alpha" maskUnits="userSpaceOnUse" x="0" y="1" width="13" height="15">
<path d="M0.243225 1.50781V15.8452H12.2761V1.50781H0.243225Z" fill="#8E8EB5"/>
</mask>
<g mask="url(#mask0)">
<path fill-rule="evenodd" clip-rule="evenodd" d="M0.228149 15.8452V13.7447H1.84868V3.60941H0.228149V1.50781H6.71072C9.68635 1.50781 11.5001 2.91681 11.5001 5.36377C11.5001 6.97019 10.5812 7.95938 9.42023 8.42889C11.0889 8.89887 12.2746 10.1097 12.2746 11.7661C12.2746 14.3857 10.291 15.8447 7.04972 15.8447H0.228149V15.8452ZM4.0741 3.60941V7.51531H6.49297C8.30741 7.51531 9.25062 6.82248 9.25062 5.56189C9.25062 4.27634 8.28334 3.60871 6.46913 3.60871H4.0741V3.60941ZM4.0741 13.7447H6.83197C8.96112 13.7447 10.0253 13.0276 10.0253 11.6431C10.0253 10.2834 8.88778 9.54223 6.66259 9.54223H4.0741V13.7447Z" fill="#8E8EB5"/>
</g>
<path fill-rule="evenodd" clip-rule="evenodd" d="M24.0326 8.38095C23.7908 7.53994 23.1856 7.04569 22.3875 7.04569C20.5247 7.04569 18.7591 8.45446 18.7591 11.0253V13.7451H22.3394V15.8455H14.3557V13.7451H16.6297V7.41649H14.84V5.31513H18.7346V7.09493C19.3874 5.85885 20.7182 4.96883 22.484 4.96883C24.4678 4.96883 25.7015 6.13047 26.0643 7.78683L24.0326 8.38095ZM34.9183 9.71551V9.12208C34.9183 7.63865 33.7571 7.02049 32.4997 7.02049C31.3144 7.02049 30.2978 7.51497 29.4757 8.28131L28.0722 6.72413C29.0402 5.80868 30.4186 4.96883 32.4997 4.96883C35.0877 4.96883 37.0954 6.3783 37.0954 9.04741V13.7451H38.5958V15.8455H34.9183V14.7333C34.3625 15.6483 32.8625 16.192 31.3868 16.192C29.2581 16.192 27.4194 15.0796 27.4194 12.8793C27.4194 10.2837 29.9114 9.29547 32.1847 9.29547C33.2982 9.29547 34.2169 9.51739 34.9183 9.71551ZM34.9183 11.5935C34.2414 11.3464 33.2256 11.1483 32.2814 11.1483C30.927 11.1483 29.6203 11.5935 29.6203 12.8544C29.6203 13.7934 30.4427 14.2386 31.5796 14.2386C33.152 14.2386 34.9178 13.3733 34.9178 11.8899V11.5935H34.9183ZM51.5135 13.7451V15.8455H41.1118V13.7451H45.4178V7.41649H42.1279V5.31513H47.5463V13.7444H51.5135V13.7451ZM45.1517 3.21377H47.5469V0H45.1517V3.21377ZM54.0788 13.7451H55.6512V7.41649H54.1751V5.31513H57.7558V6.67396C58.385 5.63599 59.6908 4.96883 61.2873 4.96883C63.5849 4.96883 65.2306 6.45227 65.2306 8.85023V13.7444H66.8026V15.845H61.4571V13.7444H63.1017V9.44295C63.1017 7.61391 62.013 7.09493 61.0212 7.09493C59.4006 7.09493 57.7796 8.33101 57.7796 10.2343V13.7451H59.4245V15.8455H54.0788V13.7451ZM69.7301 7.41579H67.0448V5.31513H69.7301V1.50817H71.859V5.31513H76.8663V7.41579H71.859V11.8409C71.859 13.4723 72.9723 14.1404 74.2538 14.1404C75.4642 14.1404 76.4794 13.448 77.2292 12.6817L78.6572 14.1896C77.7137 15.2281 76.2624 16.192 74.2545 16.192C71.6671 16.192 69.7305 14.7333 69.7305 11.9158V7.41579H69.7301ZM90.2683 8.38095C90.0258 7.53994 89.4221 7.04569 88.6237 7.04569C86.7609 7.04569 84.9953 8.45446 84.9953 11.0253V13.7451H88.5758V15.8455H80.5926V13.7451H82.8662V7.41649H81.0754V5.31513H84.9706V7.09493C85.6238 5.85885 86.9539 4.96883 88.7198 4.96883C90.7032 4.96883 91.9372 6.13047 92.3003 7.78683L90.2683 8.38095ZM104.59 14.2386C103.526 15.376 101.639 16.192 99.5338 16.192C96.0756 16.192 93.6556 13.8186 93.6556 10.5808C93.6556 7.34229 96.003 4.96883 99.2681 4.96883C102.51 4.96883 104.784 7.51567 104.784 10.9754V11.3464H95.9051C96.2682 13.1017 97.6962 14.1644 99.5583 14.1644C101.107 14.1644 102.437 13.5222 103.163 12.7062L104.59 14.2386ZM96.0025 9.49265H102.339C102.026 7.98494 100.719 6.97102 99.2681 6.97102C97.6228 6.97102 96.3654 8.00921 96.0025 9.49265ZM117.822 14.2386C116.758 15.376 114.871 16.192 112.767 16.192C109.308 16.192 106.888 13.8186 106.888 10.5808C106.888 7.34229 109.234 4.96883 112.501 4.96883C115.742 4.96883 118.017 7.51567 118.017 10.9754V11.3464H109.138C109.501 13.1017 110.928 14.1644 112.791 14.1644C114.339 14.1644 115.67 13.5222 116.396 12.7062L117.822 14.2386ZM109.234 9.49265H115.573C115.258 7.98494 113.952 6.97102 112.501 6.97102C110.856 6.97102 109.597 8.00921 109.234 9.49265ZM59.4199 22.4348L58.2921 24.6575H59.8643L59.4199 22.4348ZM58.0133 25.2094L57.4695 26.2868H56.7996L59.241 21.5823H59.8443L60.8329 26.2868H60.196L59.9771 25.2094H58.0133ZM99.9127 25.8765C100.152 25.8765 100.351 25.8301 100.51 25.7367C100.669 25.6436 100.786 25.5241 100.861 25.3788C100.935 25.2408 100.974 25.0861 100.974 24.9289C100.974 24.7923 100.938 24.6754 100.865 24.5777C100.792 24.4801 100.667 24.3856 100.49 24.2948L99.9127 24.0426C99.5853 23.8925 99.3499 23.7292 99.2061 23.5516C99.0626 23.3747 98.9906 23.1584 98.9906 22.904C98.9906 22.6268 99.059 22.3825 99.1964 22.1711C99.3331 21.9596 99.5249 21.7975 99.7701 21.6838C100.016 21.5702 100.298 21.5132 100.616 21.5132C100.881 21.5177 101.114 21.5555 101.313 21.6257C101.507 21.6931 101.685 21.801 101.837 21.9426L101.737 22.5766C101.396 22.2586 101.001 22.0971 100.55 22.0927C100.275 22.0927 100.051 22.1634 99.8764 22.3038C99.7016 22.445 99.6144 22.6245 99.6144 22.8427C99.6144 22.9654 99.6573 23.07 99.7436 23.1563C99.8299 23.2426 99.9879 23.3404 100.218 23.4494L100.782 23.7086C101.087 23.8631 101.303 24.03 101.429 24.2094C101.555 24.3889 101.618 24.604 101.618 24.8537C101.618 25.1398 101.558 25.404 101.439 25.6448C101.319 25.8856 101.127 26.0823 100.861 26.2342C100.596 26.3869 100.256 26.4627 99.8399 26.4627C99.269 26.4627 98.8204 26.3148 98.4929 26.0198L98.5992 25.3447C98.9927 25.6992 99.4305 25.8765 99.9127 25.8765ZM103.108 23.6711C102.903 23.8513 102.754 24.0896 102.68 24.3562H104.604C104.608 24.3198 104.61 24.2699 104.61 24.2062C104.61 23.9516 104.544 23.7516 104.411 23.606C104.278 23.4608 104.091 23.3883 103.847 23.3883C103.564 23.3883 103.318 23.4825 103.108 23.6711ZM104.852 23.2482C105.071 23.4961 105.181 23.8179 105.181 24.2127C105.181 24.3448 105.174 24.454 105.161 24.5401C105.148 24.6269 105.125 24.7291 105.095 24.8467H102.6C102.587 25.1877 102.673 25.4506 102.859 25.6345C103.044 25.8186 103.297 25.9106 103.615 25.9106C103.836 25.9106 104.038 25.8823 104.219 25.8254C104.408 25.7647 104.589 25.6787 104.756 25.5697L104.677 26.0809C104.336 26.3173 103.934 26.4354 103.469 26.4354C103.164 26.4354 102.9 26.3684 102.677 26.2342C102.457 26.1045 102.279 25.9113 102.166 25.6786C102.048 25.4425 101.99 25.1767 101.99 24.881C101.99 24.59 102.06 24.2892 102.202 23.9777C102.344 23.6664 102.558 23.4053 102.846 23.1936C103.133 22.9827 103.487 22.8767 103.907 22.8767C104.319 22.8767 104.634 23.0006 104.852 23.2482ZM107.227 23.497C106.965 23.497 106.744 23.5936 106.563 23.7871C106.382 23.9798 106.262 24.2608 106.205 24.6288L105.946 26.3129H105.356L105.866 22.9857H106.437L106.351 23.5514C106.616 23.1607 106.935 22.9652 107.306 22.9652C107.399 22.9652 107.485 22.9722 107.565 22.9857L107.485 23.5175C107.4 23.5034 107.313 23.4966 107.227 23.497ZM109.001 26.3129H108.45L107.681 22.9859H108.271L108.822 25.5832L110.168 22.9859H110.786L109.001 26.3129ZM111.216 22.3449C111.156 22.2814 111.126 22.2019 111.126 22.1062C111.126 21.9881 111.17 21.8859 111.258 21.7996C111.347 21.7132 111.449 21.6701 111.564 21.6701C111.657 21.6701 111.733 21.7018 111.793 21.7653C111.852 21.829 111.882 21.9088 111.882 22.004C111.882 22.1176 111.837 22.2187 111.749 22.3074C111.661 22.396 111.559 22.4401 111.444 22.4401C111.352 22.4401 111.275 22.4086 111.216 22.3449ZM111.146 26.3129H110.555L111.053 22.9859H111.65L111.146 26.3129ZM112.528 26.231C112.313 26.0961 112.136 25.9042 112.017 25.6754C111.893 25.4413 111.832 25.1832 111.832 24.9016C111.832 24.5471 111.91 24.2153 112.067 23.9061C112.224 23.5971 112.452 23.3483 112.751 23.1596C113.049 22.9712 113.4 22.8767 113.802 22.8767C114.191 22.8767 114.507 22.9768 114.75 23.1768L114.651 23.7969C114.426 23.5516 114.131 23.4291 113.769 23.4291C113.512 23.4291 113.283 23.4961 113.082 23.63C112.884 23.7609 112.723 23.9431 112.614 24.1583C112.504 24.375 112.447 24.6162 112.449 24.8607C112.449 25.1652 112.533 25.4117 112.701 25.6002C112.869 25.789 113.099 25.883 113.391 25.883C113.572 25.883 113.753 25.8492 113.935 25.7808C114.114 25.7144 114.278 25.6125 114.419 25.481L114.326 26.1085C114.154 26.2265 113.981 26.3103 113.809 26.3607C113.636 26.4104 113.453 26.4354 113.258 26.4354C112.988 26.4354 112.745 26.3673 112.528 26.231ZM115.943 23.6711C115.738 23.8513 115.59 24.0896 115.515 24.3562H117.44C117.444 24.3198 117.446 24.2699 117.446 24.2062C117.446 23.9516 117.38 23.7516 117.247 23.606C117.114 23.4608 116.926 23.3883 116.683 23.3883C116.4 23.3883 116.153 23.4825 115.943 23.6711ZM117.688 23.2482C117.907 23.4961 118.017 23.8179 118.017 24.2127C118.017 24.3448 118.01 24.454 117.996 24.5401C117.983 24.6269 117.961 24.7291 117.93 24.8467H115.436C115.423 25.1877 115.509 25.4506 115.694 25.6345C115.88 25.8186 116.132 25.9106 116.451 25.9106C116.672 25.9106 116.873 25.8823 117.055 25.8254C117.244 25.7647 117.425 25.6787 117.592 25.5697L117.512 26.0809C117.172 26.3173 116.769 26.4354 116.305 26.4354C116 26.4354 115.735 26.3684 115.512 26.2342C115.293 26.1045 115.115 25.9113 115.001 25.6786C114.884 25.4425 114.826 25.1767 114.826 24.881C114.826 24.59 114.896 24.2892 115.038 23.9777C115.179 23.6664 115.394 23.4053 115.681 23.1936C115.969 22.9827 116.322 22.8767 116.742 22.8767C117.154 22.8767 117.469 23.0006 117.688 23.2482ZM85.9147 21.5611C85.7773 22.4875 85.0891 22.4875 84.4234 22.4875H84.0446L84.3103 20.7581C84.318 20.7075 84.3431 20.6614 84.3811 20.6281C84.419 20.5949 84.4673 20.5767 84.5171 20.5768H84.6906C85.1436 20.5768 85.5716 20.5768 85.7925 20.8421C85.9245 21.0006 85.9644 21.2362 85.9147 21.5611ZM85.625 19.1447H83.1141C82.9427 19.1447 82.7962 19.273 82.7697 19.4476L81.7545 26.0634C81.7497 26.0941 81.7515 26.1256 81.7597 26.1555C81.7679 26.1854 81.7824 26.2132 81.802 26.2368C81.8217 26.2605 81.8461 26.2794 81.8737 26.2924C81.9012 26.3054 81.9311 26.312 81.9613 26.312H83.2495C83.3696 26.312 83.4717 26.2221 83.4904 26.1003L83.7785 24.2246C83.7914 24.1403 83.8332 24.0634 83.8964 24.008C83.9595 23.9525 84.0399 23.9221 84.123 23.9222H84.9172C86.5709 23.9222 87.5257 23.0996 87.775 21.4691C87.8872 20.7562 87.7795 20.1962 87.4548 19.8041C87.0977 19.3727 86.4646 19.1447 85.625 19.1447ZM68.0078 21.5611C67.8707 22.4875 67.1824 22.4875 66.5165 22.4875H66.1377L66.4036 20.7581C66.4114 20.7075 66.4365 20.6614 66.4744 20.6281C66.5124 20.5949 66.5606 20.5767 66.6105 20.5768H66.784C67.2369 20.5768 67.6649 20.5768 67.8856 20.8421C68.0178 21.0006 68.0575 21.2362 68.0078 21.5611ZM67.7183 19.1447H65.2075C65.036 19.1447 64.8896 19.273 64.863 19.4476L63.8478 26.0634C63.8431 26.0941 63.8448 26.1256 63.8531 26.1555C63.8613 26.1854 63.8757 26.2132 63.8954 26.2368C63.915 26.2605 63.9395 26.2794 63.967 26.2924C63.9945 26.3054 64.0244 26.312 64.0547 26.312H65.2531C65.425 26.312 65.571 26.1836 65.5976 26.0095L65.8716 24.2246C65.8846 24.1403 65.9265 24.0634 65.9896 24.008C66.0528 23.9526 66.1332 23.9221 66.2163 23.9222H67.0106C68.6642 23.9222 69.6188 23.0996 69.8683 21.4691C69.9805 20.7562 69.8726 20.1962 69.5482 19.8041C69.1908 19.3727 68.558 19.1447 67.7183 19.1447ZM73.5467 23.9364C73.4307 24.6425 72.8853 25.1162 72.1898 25.1162C71.841 25.1162 71.5622 25.001 71.3824 24.7825C71.2046 24.5665 71.1376 24.2582 71.1941 23.9147C71.3024 23.2151 71.8565 22.726 72.5415 22.726C72.8828 22.726 73.16 22.8424 73.343 23.0627C73.5272 23.2844 73.5996 23.595 73.5467 23.9364ZM75.2222 21.5317H74.0201C73.9703 21.5316 73.922 21.5499 73.8841 21.5832C73.8461 21.6165 73.821 21.6626 73.8133 21.7132L73.7604 22.0586L73.6764 21.9335C73.4159 21.5452 72.8358 21.4152 72.2563 21.4152C70.928 21.4152 69.7936 22.4495 69.5727 23.9005C69.4578 24.6243 69.6208 25.3158 70.0202 25.7986C70.3872 26.2422 70.9105 26.427 71.5343 26.427C72.6051 26.427 73.1986 25.7199 73.1986 25.7199L73.145 26.0634C73.1404 26.0941 73.1422 26.1255 73.1504 26.1554C73.1587 26.1853 73.1731 26.213 73.1928 26.2367C73.2124 26.2603 73.2368 26.2792 73.2643 26.2922C73.2918 26.3052 73.3217 26.312 73.3519 26.312H74.4345C74.6062 26.312 74.752 26.1836 74.779 26.0095L75.429 21.7802C75.4337 21.7495 75.4319 21.7181 75.4237 21.6882C75.4154 21.6583 75.401 21.6306 75.3813 21.607C75.3617 21.5834 75.3373 21.5644 75.3098 21.5514C75.2823 21.5384 75.2524 21.5317 75.2222 21.5317Z" fill="#8E8EB5"/>
<mask id="mask1" mask-type="alpha" maskUnits="userSpaceOnUse" x="76" y="21" width="18" height="7">
<path d="M93.3386 27.9688H76.0239V21.4141H93.3386V27.9688Z" fill="#8E8EB5"/>
</mask>
<g mask="url(#mask1)">
<path fill-rule="evenodd" clip-rule="evenodd" d="M91.4547 23.9352C91.3386 24.6414 90.7932 25.1151 90.0977 25.1151C89.749 25.1151 89.4702 24.9998 89.2903 24.7814C89.1125 24.5653 89.0458 24.257 89.1023 23.9135C89.2104 23.2139 89.7646 22.7248 90.4495 22.7248C90.7907 22.7248 91.068 22.8413 91.251 23.0615C91.4351 23.2832 91.5076 23.5938 91.4547 23.9352ZM93.1301 21.5305H91.9281C91.8782 21.5304 91.8299 21.5487 91.792 21.582C91.7541 21.6153 91.729 21.6614 91.7212 21.7121L91.6683 22.0574L91.5843 21.9323C91.3239 21.544 90.744 21.4141 90.1643 21.4141C88.836 21.4141 87.7016 22.4483 87.4809 23.8993C87.3658 24.6232 87.529 25.3146 87.9284 25.7974C88.2951 26.241 88.8185 26.4258 89.4422 26.4258C90.513 26.4258 91.1068 25.7188 91.1068 25.7188L91.053 26.0623C91.0483 26.093 91.0501 26.1243 91.0584 26.1543C91.0666 26.1842 91.0811 26.2119 91.1007 26.2355C91.1204 26.2591 91.1448 26.2781 91.1722 26.2911C91.1997 26.3041 91.2296 26.3108 91.2598 26.3108H92.3427C92.5141 26.3108 92.6599 26.1824 92.6871 26.0084L93.3368 21.779C93.3415 21.7483 93.3398 21.7169 93.3316 21.687C93.3234 21.6571 93.3089 21.6294 93.2893 21.6057C93.2696 21.5821 93.2452 21.5631 93.2178 21.5501C93.1903 21.5372 93.1604 21.5305 93.1301 21.5305ZM81.6264 21.5303H80.4179C80.3026 21.5303 80.1943 21.5893 80.1296 21.6878L78.4627 24.2106L77.7563 21.7863C77.7348 21.7123 77.6907 21.6475 77.6305 21.6014C77.5703 21.5552 77.4972 21.5303 77.4221 21.5303H76.2343C76.201 21.5302 76.1682 21.5384 76.1386 21.554C76.1089 21.5697 76.0834 21.5924 76.064 21.6202C76.0446 21.6481 76.032 21.6803 76.0272 21.7141C76.0224 21.748 76.0255 21.7826 76.0364 21.815L77.3665 25.8287L76.1149 27.6435C76.0928 27.6757 76.0797 27.7136 76.077 27.7529C76.0744 27.7923 76.0824 27.8316 76.1001 27.8667C76.1177 27.9017 76.1444 27.9311 76.1772 27.9515C76.2101 27.972 76.2477 27.9828 76.2861 27.9828H77.4929C77.6076 27.9828 77.7146 27.9251 77.7797 27.8285L81.7982 21.8679C81.82 21.8357 81.8327 21.7979 81.8351 21.7587C81.8375 21.7196 81.8293 21.6805 81.8116 21.6457C81.7939 21.6109 81.7673 21.5818 81.7347 21.5614C81.702 21.5411 81.6645 21.5303 81.6264 21.5303Z" fill="#8E8EB5"/>
</g>
<path fill-rule="evenodd" clip-rule="evenodd" d="M94.5462 19.3261L93.5158 26.0633C93.511 26.094 93.5128 26.1253 93.521 26.1552C93.5293 26.1851 93.5437 26.2128 93.5633 26.2364C93.583 26.26 93.6074 26.279 93.6348 26.2919C93.6623 26.3049 93.6922 26.3116 93.7224 26.3116H94.7589C94.9303 26.3116 95.0763 26.1837 95.1034 26.0091L96.1192 19.3931C96.1239 19.3624 96.1221 19.331 96.1139 19.3011C96.1056 19.2712 96.0912 19.2435 96.0716 19.2199C96.0519 19.1963 96.0276 19.1773 96.0001 19.1643C95.9727 19.1513 95.9428 19.1446 95.9126 19.1445H94.753C94.7031 19.1444 94.6548 19.1627 94.6169 19.196C94.5789 19.2293 94.5539 19.2754 94.5462 19.3261Z" fill="#8E8EB5"/>
</svg>
