<svg width="100" height="31" viewBox="0 0 100 31" fill="none" xmlns="http://www.w3.org/2000/svg">
<path fill-rule="evenodd" clip-rule="evenodd" d="M93.791 9.93903C94.1205 9.93903 94.3208 10.1683 94.4024 10.4768C94.5773 11.13 93.7248 12.7218 90.7445 14.5505C90.8107 12.431 92.0928 9.93903 93.791 9.93903ZM84.6685 9.93903C85.166 9.93903 85.1983 10.4287 85.2221 10.6041C85.3477 11.5287 84.4936 13.1667 81.6984 14.1062C81.9973 12.1476 83.2845 9.93903 84.6685 9.93903ZM72.6132 2.23076C73.5574 2.23076 72.783 5.44773 69.7807 9.9533C70.4684 3.98238 71.4618 2.23076 72.6132 2.23076ZM62.2493 9.93903C62.5295 9.93903 62.5991 10.1613 62.6365 10.2873C62.757 10.699 62.324 12.3208 59.0839 14.5879C59.269 12.4249 60.5868 9.93903 62.2493 9.93903ZM48.8253 28.2007C48.4891 28.2007 48.2598 27.9868 48.2598 27.5657C48.2598 25.6283 51.2859 22.9811 51.3182 22.9727C50.9055 25.5773 49.8493 28.2007 48.8253 28.2007ZM98.7717 15.4174C98.2606 15.0786 97.5711 15.2173 97.2281 15.7266C97.1721 15.8099 95.8237 17.7752 93.4734 17.7752C92.5497 17.7752 91.85 17.4899 91.3949 16.9262C91.3643 16.8888 91.3355 16.8481 91.3049 16.808C91.3168 16.8029 91.3253 16.7971 91.3355 16.7914C96.8596 13.6141 96.8273 10.9147 96.5573 9.90168C96.233 8.68933 95.1478 7.90605 93.791 7.90605C90.6341 7.90605 88.5131 11.4304 88.5131 14.7217C88.5131 15.1401 88.5522 15.5406 88.6184 15.9242C87.4993 16.7516 85.7604 17.7752 84.2337 17.7752C83.3439 17.7752 82.6748 17.512 82.2469 16.989C82.094 16.8036 81.9769 16.5959 81.8903 16.3808C86.1204 15.154 87.7235 12.4542 87.4297 10.3024C87.2378 8.89139 86.1849 7.90605 84.8706 7.90605C81.9276 7.90605 79.7998 10.9969 79.4551 14.0634C78.893 14.0048 78.3819 13.8393 77.9302 13.5603C78.0049 13.0738 78.0422 12.596 78.0422 12.142C78.0422 11.1426 77.852 10.2718 77.4903 9.6227C76.9979 8.73483 76.198 8.24582 75.2386 8.24582C74.724 8.24582 74.2621 8.52904 74.0023 9.00413C73.4555 10.0036 73.8053 11.9433 74.8123 13.5163C75.0076 13.8208 75.2216 14.1018 75.4508 14.3588C74.9006 16.1331 73.7612 17.8023 72.2702 17.8023C71.6011 17.8023 71.1001 17.5952 70.6926 17.152C70.1067 16.5141 69.7314 15.3792 69.6091 13.9442C73.7595 8.75928 75.7752 3.68745 74.6289 1.2855C74.2383 0.46864 73.5081 0 72.6251 0C69.7552 8.48985e-06 68.0468 3.71414 67.4015 11.354C67.3608 11.8214 67.3319 12.3855 67.337 12.9993C65.8036 15.0746 63.292 17.7752 61.0232 17.7752C60.3762 17.7752 59.9024 17.5562 59.5798 17.1062C59.5509 17.0688 59.5254 17.0281 59.5 16.9873C59.5254 16.9721 59.5526 16.9568 59.5781 16.9398C65.1464 13.3406 65.0666 10.6473 64.7745 9.65585C64.4552 8.57696 63.4873 7.90609 62.2493 7.90609C59.0092 7.90609 56.8321 11.6269 56.8321 15.1023C56.8321 15.4167 56.8525 15.7215 56.8899 16.0153C55.8676 16.751 55.0202 17.4067 54.2068 18.0418C54.329 17.0909 54.5091 15.8898 54.7111 14.0872V14.0865C54.7587 13.7227 54.7994 13.4243 54.8198 13.278C55.0015 11.9608 52.8415 11.6883 52.6071 13.1582C52.366 14.6715 51.7139 17.8024 49.9376 17.8024C48.8644 17.8024 48.3006 16.609 48.4042 14.8737C48.5689 12.1446 50.0412 9.9192 51.8667 9.9192C52.4933 9.9192 52.8194 10.5894 52.8194 10.5894C53.3951 11.637 55.1849 10.7527 54.8062 9.64464C54.6381 9.14968 54.0353 7.92052 51.955 7.92052C47.6807 7.92052 46.3596 12.2468 46.1694 15.1023C46.1371 15.5721 46.1473 16.0261 46.1897 16.4581C45.5937 17.1843 44.8839 17.8024 44.1944 17.8024C43.5168 17.8024 43.0889 17.0485 43.3419 15.3067C43.5831 13.6457 43.7529 12.2729 43.8667 11.4693C44.3846 7.83613 39.8386 7.93597 39.8386 7.93597C39.8386 7.93597 39.7894 5.81691 38.0386 5.81691C37.1419 5.81691 36.3472 6.51324 36.3472 7.82645C36.3472 9.0405 37.3423 9.63734 37.3423 9.63734L37.3474 9.63836C37.1266 11.5187 36.2436 17.8024 34.2839 17.8024C33.4043 17.8024 33.3448 16.8515 33.4212 16.1837C33.5282 15.2558 33.6963 13.6841 33.7524 13.278C33.9341 11.9608 31.7723 11.6883 31.5397 13.1582C31.2985 14.6715 30.6464 17.8024 28.8702 17.8024C27.7969 17.8024 27.2314 16.4525 27.318 14.828C27.4658 12.0445 28.9737 9.9192 30.7993 9.9192C31.4259 9.9192 31.7519 10.5894 31.7519 10.5894C32.2274 11.6272 34.1073 10.8809 33.7388 9.64464C33.5775 9.09874 32.9678 7.92052 30.8876 7.92052C26.6116 7.92052 25.2904 12.2468 25.1019 15.1023C25.0714 15.5441 25.0799 15.9711 25.1155 16.3795C24.5042 17.2098 23.7672 17.8024 23.0726 17.8024C22.4392 17.8024 21.9535 17.4764 22.0707 16.0392C22.125 15.368 22.9062 10.7797 22.8553 9.9428C22.7687 8.55115 22.1369 7.93767 20.5848 7.93767C18.9529 7.93767 17.72 8.77647 17.2024 9.31235C17.2024 9.31235 17.9747 3.52244 18.1208 2.41078C18.2753 1.24582 16.0353 1.23405 15.889 2.4011C15.8257 2.90709 15.2278 7.4945 14.6737 11.7294C13.4252 14.4947 10.8949 18.7566 7.1491 18.7566C0.0524635 18.7566 3.32738 3.28982 9.96567 3.28982C11.5215 3.28982 10.8266 5.77429 9.78329 7.28939C9.0383 8.3715 10.9156 9.61611 11.9525 7.86636C14.8182 3.03122 12.4032 1.22322 10.1333 1.22322C0.267451 1.22322 -3.3943 20.8942 6.88265 20.8942C10.2661 20.8942 12.5302 18.9925 13.9891 16.9481C13.8363 18.1095 13.7315 18.9008 13.7101 19.0485C13.5361 20.2626 15.8046 20.1624 15.924 19.1487C16.0001 18.5018 16.337 15.7872 16.6255 13.7162C16.7904 12.5322 18.2379 10.3535 19.8954 10.3535C20.2876 10.3535 20.5424 10.7417 20.4931 11.0743C20.4337 11.4606 19.7289 16.6102 19.7765 17.3777C19.9106 19.5256 21.4458 20.0248 22.9096 20.0248C24.0677 20.0248 24.9949 19.4764 25.7744 18.6155C26.2923 19.4815 27.0939 20.0197 28.1739 20.0197C30.6447 20.0197 31.4972 18.2403 31.4972 18.2403C31.4972 18.2403 31.7927 20.0028 33.9222 20.0028C38.2372 20.0028 39.2443 12.4762 39.4582 9.96674C39.7112 9.97659 41.2362 10.0702 41.4875 10.9237C41.7287 11.742 40.9628 14.3665 40.9 17.0687C40.8677 18.4916 41.3907 20.0197 43.6442 20.0197C45.0197 20.0197 46.098 19.3881 46.8809 18.6733C47.3988 19.5036 48.1868 20.0197 49.2413 20.0197C50.4572 20.0197 51.2808 19.6292 51.8039 19.2336C51.7699 19.4662 51.736 19.6954 51.7037 19.9264C51.702 19.9416 51.7003 19.9552 51.6986 19.9705C51.7037 19.9264 46.008 24.0371 46.008 27.9221C46.008 29.4367 46.7111 30.43 48.506 30.43C52.0773 30.43 53.1811 25.6655 53.7075 21.7211C53.733 21.5343 53.7568 21.3577 53.7805 21.1879C54.3392 20.7652 54.8589 20.3593 55.3632 19.9654C56.1053 19.3864 56.822 18.8278 57.6473 18.2199C57.688 18.2827 57.7271 18.3472 57.7695 18.4084C58.5218 19.4526 59.646 20.0045 61.0232 20.0045C63.6078 20.0045 65.9988 18.0212 67.7225 16.082C67.9823 17.0398 68.3967 17.9482 69.0521 18.6597C69.8758 19.5562 70.9881 20.0299 72.2702 20.0299C74.7393 20.0299 76.4527 18.0603 77.3392 15.7713C78.0151 16.0849 78.7572 16.2654 79.5485 16.3073C79.7217 17.1128 80.0495 17.826 80.5249 18.405C81.1244 19.1334 82.2554 20.0045 84.2337 20.0045C86.2002 20.0045 88.1514 18.9534 89.4624 18.0535C89.5269 18.1469 89.5898 18.2386 89.6594 18.3252C90.2775 19.091 91.4408 20.0045 93.4734 20.0045C97.0464 20.0045 99.0078 17.0789 99.0893 16.9532C99.4255 16.4418 99.2829 15.7563 98.7717 15.4172" fill="#8E8EB5"/>
</svg>
