<svg width="91" height="27" viewBox="0 0 91 27" fill="none" xmlns="http://www.w3.org/2000/svg">
<g clip-path="url(#clip0)">
<path d="M13.6511 15.1154C12.6835 13.6154 11.9504 12.6346 11.452 12.2596C13.9736 11.625 16.4659 9.54808 16.4659 6.14423C16.4659 1.99038 13.5631 0 8.95965 0C4.91331 0 2.56761 1.875 2.03983 5.13462H0.0166626L4.03368 8.50962L8.28526 5.13462H5.9982C5.9982 5.13462 6.02752 2.79808 9.01829 2.79808C11.5692 2.79808 12.4489 4.64423 12.4489 6.17308C12.4489 8.39423 11.2467 10.0962 8.37322 10.0962H2.01051V20.9423H6.02752V12.7788C6.90716 12.7788 7.75748 13.0962 9.25286 15.2596L12.8301 20.9423H17.3162L13.6511 15.1154Z" fill="#8E8EB5"/>
<path d="M70.9155 20.9432V1.18359H74.6393V20.9144H70.9155V20.9432Z" fill="#8E8EB5"/>
<path d="M24.7931 18.4318C26.6403 18.4318 27.6959 17.8549 28.3703 17.5087L29.5725 19.8741C28.6635 20.3645 27.2561 21.1722 24.4706 21.1722C19.8964 21.1722 17.3162 18.3164 17.3162 14.0472C17.3162 9.80679 20.3069 7.06641 24.0894 7.06641C28.3703 7.06641 30.4228 10.0664 29.983 15.0279H21.2745C21.4505 17.076 22.506 18.4318 24.7931 18.4318ZM26.3471 12.4606C26.3178 10.9318 25.702 9.72025 24.0014 9.72025C22.4181 9.72025 21.5384 10.6722 21.2745 12.4606H26.3471Z" fill="#8E8EB5"/>
<path d="M38.6914 21.1722C34.3226 21.1722 31.625 18.2876 31.625 14.1337C31.625 9.60487 34.6744 7.06641 38.8087 7.06641C41.0371 7.06641 42.3566 7.72987 43.0017 8.13371L41.7995 10.5279C41.1837 10.1529 40.3041 9.72025 38.926 9.72025C36.7269 9.72025 35.5834 11.5376 35.5834 14.0183C35.5834 16.4991 36.6683 18.4318 39.014 18.4318C40.5973 18.4318 41.4476 17.7972 41.8581 17.5376L43.0017 19.9029C42.3859 20.3068 41.2131 21.1722 38.6914 21.1722Z" fill="#8E8EB5"/>
<path d="M48.7779 7.47266V15.7804C48.7779 17.1361 49.247 17.8284 50.5958 17.8284C52.0326 17.8284 53.1175 16.4727 53.4107 16.1554V7.5015H57.1345V17.0784C57.1345 18.7804 57.3397 20.1361 57.4863 20.9438H53.8212C53.7039 20.5977 53.5573 19.7034 53.5279 19.1554C52.7949 20.0784 51.3875 21.29 49.1298 21.29C46.139 21.29 45.0248 19.3861 45.0248 16.9342V7.47266H48.7779Z" fill="#8E8EB5"/>
<path d="M68.0127 10.7019C67.7781 10.5577 67.3676 10.3846 66.576 10.3846C64.934 10.3846 63.937 11.8269 63.5852 12.4327V20.9135H59.8614V7.47115H63.5852V9.28846C64.1716 8.30769 65.2858 7.125 67.0451 7.125C68.042 7.125 68.5991 7.32692 68.8923 7.47115L68.0127 10.7019Z" fill="#8E8EB5"/>
<path d="M86.6024 7.47266L83.9635 16.3284L80.7674 7.47266H76.6625L81.911 19.8765C81.0313 23.2515 80.1517 24.2611 78.1872 24.2611C77.3369 24.2611 76.8677 24.1457 76.6625 24.088L76.164 26.6842C76.4572 26.7707 77.2489 27.0303 78.4217 27.0303C82.2628 27.0303 83.9635 24.5496 85.195 21.29L89.3879 10.9053L90.7367 7.5015L86.6024 7.47266Z" fill="#8E8EB5"/>
</g>
<defs>
<clipPath id="clip0">
<rect width="90.72" height="27" fill="white" transform="translate(0.0166626)"/>
</clipPath>
</defs>
</svg>
