<svg width="100" height="103" viewBox="0 0 100 103" fill="none" xmlns="http://www.w3.org/2000/svg">
<path fill-rule="evenodd" clip-rule="evenodd" d="M14 4C14 1.79086 15.7909 0 18 0C20.2091 0 22 1.79086 22 4V12H77V4C77 1.79086 78.7909 0 81 0C83.2091 0 85 1.79086 85 4V12H95C97.7614 12 100 14.2386 100 17V97.1786C100 99.94 97.7614 102.179 95 102.179H5C2.23858 102.179 0 99.94 0 97.1786V17C0 14.2386 2.23858 12 5 12H14V4ZM6 41V96.1786H94V41H6ZM37 46H26V57H37V46ZM26 82H37V93H26V82ZM37 64H26V75H37V64ZM44 46H55V57H44V46ZM55 82H44V93H55V82ZM44 64H55V75H44V64ZM73 46H62V57H73V46ZM62 82H73V93H62V82ZM73 64H62V75H73V64Z" fill="black"/>
</svg>
