<svg width="112" height="113" viewBox="0 0 112 113" fill="none" xmlns="http://www.w3.org/2000/svg">
<path fill-rule="evenodd" clip-rule="evenodd" d="M21 4C21 1.79077 22.7908 0 25 0C27.2092 0 29 1.79077 29 4V12H84V4C84 1.79077 85.7908 0 88 0C90.2092 0 92 1.79077 92 4V12H107C109.761 12 112 14.2385 112 17V108C112 110.761 109.761 113 107 113H5C2.23853 113 0 110.761 0 108V17C0 14.2385 2.23853 12 5 12H21V4ZM6 107V41H106V107H6ZM41 52C41 50.8955 41.8955 50 43 50H50C51.1045 50 52 50.8955 52 52V59C52 60.1045 51.1045 61 50 61H43C41.8955 61 41 60.1045 41 59V52ZM24 50C22.8955 50 22 50.8955 22 52V59C22 60.1045 22.8955 61 24 61H31C32.1045 61 33 60.1045 33 59V52C33 50.8955 32.1045 50 31 50H24ZM79 52C79 50.8955 79.8955 50 81 50H88C89.1045 50 90 50.8955 90 52V59C90 60.1045 89.1045 61 88 61H81C79.8955 61 79 60.1045 79 59V52ZM62 50C60.8955 50 60 50.8955 60 52V59C60 60.1045 60.8955 61 62 61H69C70.1045 61 71 60.1045 71 59V52C71 50.8955 70.1045 50 69 50H62ZM41 71C41 69.8955 41.8955 69 43 69H50C51.1045 69 52 69.8955 52 71V78C52 79.1045 51.1045 80 50 80H43C41.8955 80 41 79.1045 41 78V71ZM24 69C22.8955 69 22 69.8955 22 71V78C22 79.1045 22.8955 80 24 80H31C32.1045 80 33 79.1045 33 78V71C33 69.8955 32.1045 69 31 69H24ZM79 71C79 69.8955 79.8955 69 81 69H88C89.1045 69 90 69.8955 90 71V78C90 79.1045 89.1045 80 88 80H81C79.8955 80 79 79.1045 79 78V71ZM62 69C60.8955 69 60 69.8955 60 71V78C60 79.1045 60.8955 80 62 80H69C70.1045 80 71 79.1045 71 78V71C71 69.8955 70.1045 69 69 69H62ZM41 90C41 88.8955 41.8955 88 43 88H50C51.1045 88 52 88.8955 52 90V97C52 98.1045 51.1045 99 50 99H43C41.8955 99 41 98.1045 41 97V90ZM24 88C22.8955 88 22 88.8955 22 90V97C22 98.1045 22.8955 99 24 99H31C32.1045 99 33 98.1045 33 97V90C33 88.8955 32.1045 88 31 88H24ZM79 90C79 88.8955 79.8955 88 81 88H88C89.1045 88 90 88.8955 90 90V97C90 98.1045 89.1045 99 88 99H81C79.8955 99 79 98.1045 79 97V90ZM62 88C60.8955 88 60 88.8955 60 90V97C60 98.1045 60.8955 99 62 99H69C70.1045 99 71 98.1045 71 97V90C71 88.8955 70.1045 88 69 88H62Z" fill="black"/>
</svg>
